<svg width="22" height="23" fill="none" xmlns="http://www.w3.org/2000/svg"><path d="M4.155 21.48c-.56.597-1.42.913-2.23.726-.513-.13-1.039-.402-1.299-.886-.4-.61-.44-1.417-.16-2.084.19-.463.57-.805.919-1.15C5.07 14.384 8.8 10.73 12.486 7.028c.635-.643 1.288-1.266 1.922-1.909-3.242-.001-6.486.004-9.729-.002-.632.011-1.291-.193-1.72-.675-.812-.9-.694-2.522.332-3.216.422-.315.965-.397 1.48-.395 4.887.003 9.773 0 14.66.002.674-.015 1.392.212 1.81.764.351.4.474.944.472 1.464.002 4.942 0 9.884 0 14.827.014.622-.191 1.272-.675 1.687-.917.851-2.605.687-3.27-.398-.362-.533-.346-1.206-.343-1.823-.004-3.072.009-6.143-.006-9.214-4.413 4.454-8.858 8.878-13.264 13.34z" fill="#6FABFF"/></svg>