<svg width="39" height="43" fill="none" xmlns="http://www.w3.org/2000/svg"><path d="M38.136 26.554l-3.437-2.049a16.546 16.546 0 000-5.85l3.437-2.049a.999.999 0 00.424-.51c.081-.214.088-.451.02-.67a20.92 20.92 0 00-4.423-7.885.949.949 0 00-1.197-.192L29.523 9.4a15.153 15.153 0 00-4.915-2.927V2.397a1.02 1.02 0 00-.213-.625.964.964 0 00-.546-.35 19.739 19.739 0 00-8.827 0 .965.965 0 00-.546.35 1.017 1.017 0 00-.213.625v4.096a15.646 15.646 0 00-4.915 2.926L5.911 7.37a.935.935 0 00-1.197.193 20.795 20.795 0 00-4.422 7.884c-.07.22-.064.457.017.672a.99.99 0 00.427.509l3.437 2.05a16.544 16.544 0 000 5.849l-3.437 2.05a.999.999 0 00-.425.509c-.08.215-.087.452-.019.671a20.92 20.92 0 004.422 7.884.948.948 0 001.197.192l3.437-2.049a15.154 15.154 0 004.915 2.926v4.075c0 .227.075.448.213.625s.331.3.546.35a19.74 19.74 0 008.827 0 .964.964 0 00.546-.35c.138-.177.213-.398.213-.625v-4.101a15.644 15.644 0 004.915-2.927l3.437 2.05a.936.936 0 001.197-.192 20.794 20.794 0 004.423-7.884 1.06 1.06 0 00-.028-.666 1.023 1.023 0 00-.416-.51zM19.43 28.246a6.33 6.33 0 01-3.596-1.121 6.628 6.628 0 01-2.384-2.993 6.86 6.86 0 01-.368-3.855 6.733 6.733 0 011.771-3.415 6.409 6.409 0 013.315-1.823 6.288 6.288 0 013.738.383 6.515 6.515 0 012.9 2.46 6.816 6.816 0 011.085 3.709 6.782 6.782 0 01-1.9 4.703 6.38 6.38 0 01-4.564 1.952h.003z" fill="#BD94FF"/></svg>