<svg width="25" height="26" fill="none" xmlns="http://www.w3.org/2000/svg"><path d="M21.727.428h-18.6c-1.71 0-3.1 1.39-3.1 3.1v13.95c0 1.71 1.39 3.1 3.1 3.1h4.65v4.068c0 .475.543.751.925.47l6.05-4.538h6.975c1.71 0 3.1-1.39 3.1-3.1V3.528c0-1.71-1.39-3.1-3.1-3.1zm-7.75 12.787a.389.389 0 01-.388.388H6.615a.389.389 0 01-.388-.388v-.775c0-.213.174-.387.388-.387h6.974c.214 0 .388.174.388.387v.775zm4.65-4.65a.389.389 0 01-.387.388H6.614a.389.389 0 01-.388-.388V7.79c0-.213.174-.387.388-.387h11.624c.214 0 .388.174.388.387v.775z" fill="#82C8C7"/></svg>